PathFileType	4	(X/Y/Z)	D:\TRACE\v60_Jaco2_6-2-23\JustBodyDRS_Motion2_6-platform.trc
DataRate	CameraRate	NumFrames	NumMarkers	Units	OrigDataRate	OrigDataStartFrame	OrigNumFrames
100.00	100.00	      35	5	mm	100.00	3371	      6741
Frame#	Time	Left_Front			Right_Front			Left_Aft			Right_Aft			Post			
		X1	Y1	Z1	X2	Y2	Z2	X3	Y3	Z3	X4	Y4	Z4	X5	Y5	Z5	

3371	33.700	-833.89197	-52.81681	-650.71765	736.20691	-51.61796	-655.75983	-741.96039	48.81203	480.08612	700.09399	49.94200	489.43896	-48.29397	1211.59204	-1094.55627	
3372	33.710	-833.06116	-53.01903	-650.71466	737.02673	-51.35642	-655.66144	-741.24945	48.96323	480.17953	700.24597	49.33049	488.94946	-47.61357	1211.58142	-1094.45569	
3373	33.720	-832.19080	-52.73493	-650.72717	738.11603	-51.01797	-655.62292	-740.33069	48.92555	480.23572	700.33240	48.70499	488.91400	-46.93826	1211.76648	-1094.31616	
3374	33.730	-831.28210	-52.35321	-650.68451	739.00800	-50.98137	-655.65240	-739.47339	48.61174	480.12994	702.79944	49.94351	489.30112	-45.57404	1211.98901	-1093.88049	
3375	33.740	-830.45239	-52.42188	-650.83435	739.72870	-50.86363	-655.79175	-738.47266	48.65567	480.11615	703.66638	49.72893	489.34363	-44.82834	1212.56848	-1093.54492	
3376	33.750	-829.61731	-52.06420	-650.55408	740.46997	-50.55293	-655.66272	-737.65948	48.38914	480.19235	704.54480	49.40532	489.47070	-44.36601	1213.14758	-1093.34363	
3377	33.760	-828.59790	-51.62047	-650.74799	741.44598	-49.96558	-655.66412	-736.86908	48.05539	480.29852	705.03754	49.16255	489.47934	-43.45438	1213.50977	-1092.57581	
3378	33.770	-827.82593	-51.24007	-650.63300	742.32825	-49.53507	-655.59741	-735.82776	47.80843	480.49176	707.04980	49.31402	490.32001	-42.47721	1214.18188	-1091.84143	
3379	33.780	-826.93469	-50.66300	-650.21014	743.17712	-49.03136	-655.51196	-735.05798	47.38337	480.70724	707.72382	48.83266	490.32236	-41.09966	1214.91125	-1090.95740	
3380	33.790	-826.12329	-50.06972	-650.13745	744.04437	-48.18764	-655.39661	-734.17755	47.08489	480.92084	708.23169	48.09600	490.44485	-40.59203	1216.21082	-1090.42346	
3381	33.800	-824.82275	-49.43267	-650.08984	745.18781	-47.63293	-655.15790	-732.93219	46.67978	481.05801	709.32513	47.76981	490.61237	-39.82574	1217.20776	-1089.73547	
3382	33.810	-823.97833	-48.68430	-650.23181	746.01257	-47.19950	-655.30847	-732.21295	46.34244	481.30716	710.15149	47.40019	490.81299	-38.56413	1218.24524	-1088.66370	
3383	33.820	-823.10974	-48.01502	-650.10229	747.00458	-46.52255	-655.12103	-731.26099	45.75463	481.40335	711.29828	46.84909	490.90649	-37.19730	1219.32361	-1087.53040	
3384	33.830	-822.21973	-47.38523	-649.94043	747.97357	-45.81514	-654.98346	-730.22308	45.39105	481.53055	712.10303	46.35737	491.09497	-36.60561	1220.45154	-1086.09473	
3385	33.840	-821.20685	-46.88097	-649.56458	748.99609	-45.05201	-654.98169	-729.37506	44.77879	481.77832	712.86084	45.68216	491.36761	-35.44346	1221.35718	-1084.77820	
3386	33.850	-819.97504	-46.22626	-649.64453	749.98730	-44.38779	-655.02332	-728.29474	44.27628	482.03320	714.11090	45.45980	491.64166	-34.72255	1222.81299	-1083.31750	
3387	33.860	-819.01398	-45.34406	-649.71411	750.84601	-43.68817	-654.84393	-727.11218	43.90629	482.22800	715.06299	44.83786	491.76105	-33.40031	1223.96777	-1081.54346	
3388	33.870	-818.15430	-44.45884	-649.60657	751.97607	-42.94367	-654.50800	-726.30823	43.37299	482.35812	716.14581	44.41348	491.99310	-32.42737	1225.30505	-1079.89514	
3389	33.880	-817.24585	-43.63039	-649.42615	753.05835	-42.13610	-654.65118	-725.14435	42.74873	482.65668	717.25958	43.81752	492.17178	-31.24290	1226.42053	-1077.96045	
3390	33.890	-815.93817	-42.94065	-649.23370	754.01355	-41.24095	-654.45581	-724.14240	42.16977	482.98981	718.06866	43.21638	492.41089	-30.62218	1227.57617	-1075.82813	
3391	33.900	-814.91492	-42.06502	-649.16760	754.97351	-40.40437	-654.26068	-723.32288	41.76754	483.14389	719.24408	42.71835	492.61826	-29.34788	1229.18103	-1073.80383	
3392	33.910	-814.00848	-41.24954	-649.00677	756.13928	-39.72022	-654.28601	-722.03442	41.16702	483.32693	720.17188	42.15140	492.73254	-28.07479	1230.43433	-1071.63013	
3393	33.920	-812.86102	-40.25757	-648.94434	757.08496	-38.73777	-654.18817	-721.07422	40.57957	483.50003	721.66968	41.69302	493.05469	-27.22586	1232.01782	-1069.06421	
3394	33.930	-811.58600	-39.49183	-648.60999	758.01349	-37.85120	-653.94922	-719.91602	40.01091	483.78745	722.65350	41.12122	493.37277	-26.13097	1233.56201	-1066.63293	
3395	33.940	-810.67786	-38.65160	-648.56049	759.46283	-36.88324	-653.66046	-718.79309	39.34260	484.07281	723.81677	40.46428	493.67072	-25.19461	1234.79700	-1064.21655	
3396	33.950	-809.65265	-37.67913	-648.44952	760.37537	-36.13557	-653.77441	-717.95374	38.88618	484.26859	724.66443	39.74944	493.95184	-24.31001	1236.50110	-1061.60791	
3397	33.960	-808.60016	-36.66320	-648.36847	761.60242	-34.97502	-653.17480	-716.67822	38.09724	484.58093	725.55664	38.90275	494.03326	-22.86482	1238.30945	-1058.82288	
3398	33.970	-807.39783	-35.50446	-648.24304	762.67596	-33.99186	-653.17975	-715.48383	37.45415	484.88223	727.08832	38.40544	494.39633	-21.60153	1239.81470	-1056.20593	
3399	33.980	-806.27435	-34.35691	-647.97437	763.78210	-32.80898	-653.13153	-714.41522	36.76650	484.99496	727.87482	37.60099	494.62823	-20.95245	1241.82959	-1053.60620	
3400	33.990	-805.39655	-33.32726	-647.80530	764.74402	-31.72176	-652.83099	-713.39838	35.86716	485.36554	729.22607	36.73229	495.05911	-19.66590	1243.39209	-1051.12061	
3401	34.000	-804.25415	-32.12450	-647.54242	765.93372	-30.49351	-652.60547	-712.37164	35.10022	485.67365	729.97009	35.75606	495.25070	-18.75790	1245.29553	-1048.84143	
3402	34.010	-802.95471	-30.82997	-647.37238	767.08533	-29.25443	-652.40039	-711.15704	34.24430	485.99332	731.18701	34.99849	495.66248	-17.87208	1247.33594	-1046.32788	
3403	34.020	-801.80121	-29.50162	-647.19342	768.28253	-27.91444	-652.23779	-710.15955	33.57743	486.42892	732.25946	34.27654	496.11459	-16.40588	1249.25964	-1044.04700	
3404	34.030	-800.51489	-28.24138	-646.90961	769.17859	-26.50824	-652.05560	-708.97388	32.66632	486.61911	733.44409	33.47124	496.42041	-15.17529	1251.22314	-1041.77600	
3405	34.040	-799.65570	-27.13268	-646.65277	770.46313	-25.27535	-651.74194	-707.70074	31.85787	487.00369	734.90173	32.56802	496.71152	-13.90386	1253.15247	-1039.52075	
